<svg width="36" height="36" viewBox="0 0 36 36" fill="none" xmlns="http://www.w3.org/2000/svg">
<g id="brightness_high_24px">
<path id="icon/device/brightness_high_24px" fill-rule="evenodd" clip-rule="evenodd" d="M29.9999 13.035V6H22.9649L17.9999 1.035L13.0349 6H5.99991V13.035L1.03491 18L5.99991 22.965V30H13.0349L17.9999 34.965L22.9649 30H29.9999V22.965L34.9649 18L29.9999 13.035ZM27 21.72V27H21.72L18 30.72L14.28 27H8.99995V21.72L5.27995 18L8.99995 14.28V9H14.28L18 5.28L21.72 9H27V14.28L30.7199 18L27 21.72ZM8.99994 18C8.99994 13.035 13.0349 9 17.9999 9C22.9649 9 26.9999 13.035 26.9999 18C26.9999 22.965 22.9649 27 17.9999 27C13.0349 27 8.99994 22.965 8.99994 18ZM17.9999 24C14.6849 24 11.9999 21.315 11.9999 18C11.9999 14.685 14.6849 12 17.9999 12C21.3149 12 23.9999 14.685 23.9999 18C23.9999 21.315 21.3149 24 17.9999 24ZM14.2499 18C14.2499 15.9289 15.9289 14.25 17.9999 14.25C20.071 14.25 21.7499 15.9289 21.7499 18C21.7499 20.0711 20.071 21.75 17.9999 21.75C15.9289 21.75 14.2499 20.0711 14.2499 18Z" fill="black" fill-opacity="0.36"/>
</g>
</svg>
